Coordinates
version=1
nRows=11
nColumns=36
inDegrees=yes

Units are S.I. units (second, meters, Newtons, ...)
If the header above contains a line with 'inDegrees', this indicates whether rotational values are in degrees (yes) or radians (no).

endheader
time	pelvis_tilt	pelvis_list	pelvis_rotation	pelvis_tx	pelvis_ty	pelvis_tz	hip_flexion_r	hip_adduction_r	hip_rotation_r	knee_angle_r	knee_angle_r_beta	ankle_angle_r	subtalar_angle_r	mtp_angle_r	hip_flexion_l	hip_adduction_l	hip_rotation_l	knee_angle_l	knee_angle_l_beta	ankle_angle_l	subtalar_angle_l	mtp_angle_l	lumbar_extension	lumbar_bending	lumbar_rotation	arm_flex_r	arm_add_r	arm_rot_r	elbow_flex_r	pro_sup_r	arm_flex_l	arm_add_l	arm_rot_l	elbow_flex_l	pro_sup_l
      0.00000000	      3.91378640	      1.79799906	     15.17853367	     -0.12423303	      1.00210465	      0.35126890	     -5.53929484	     -2.03358237	     -3.94591768	      5.95517566	      0.10393742	     10.85276917	     -0.30238837	     -6.80029228	     -5.73577293	     -3.04011428	    -10.50638336	     10.28455132	      0.17949928	     11.48064796	      3.24715276	     -6.80029228	    -10.04186530	      1.47941358	     -3.12145339	      7.54658629	    -39.94923364	     45.08120167	     69.01051726	     69.94487809	    -19.75016820	    -37.67783030	     25.76944838	     74.00967504	     76.77961311
      0.01666670	      3.74830061	      1.75454368	     14.60530590	     -0.12408484	      1.00151817	      0.35177148	     -5.49050272	     -1.91395031	     -4.66881664	      5.20755142	      0.09088892	     12.14291025	     -0.94813472	     -6.93973807	     -7.04624490	     -2.89418277	    -14.28221799	      7.93718775	      0.13853006	     12.54107835	      6.85633782	     -6.93973807	     -8.57337200	      2.10099713	     -2.42809795	     10.95691413	    -42.03963884	     51.59083048	     71.33631254	     71.70276332	    -18.97276448	    -39.58804422	     32.21821343	     75.61637190	     75.26761568
      0.03333330	      3.95663120	      2.08222704	     13.82927750	     -0.12718492	      0.99958080	      0.35348865	     -4.90856360	     -2.46157457	     -4.85960015	      6.36208328	      0.11103930	     13.08820274	     -0.44649089	     -6.98467397	     -7.62515862	     -2.36175154	    -16.51370600	      7.42044164	      0.12951114	     12.25956180	      7.25549389	     -6.98467397	     -8.76268263	      1.88723598	     -2.07121203	     12.17267961	    -43.41445193	     54.04801257	     74.29049015	     72.10351069	    -18.68430527	    -41.45467114	     34.60794069	     78.62779363	     74.63985936
      0.05000000	      3.89100663	      2.15849640	     13.80766677	     -0.12716448	      0.99915957	      0.35307970	     -4.43918853	     -2.54560255	     -5.25622171	      6.95729560	      0.12142772	     13.35259794	     -1.09620663	     -7.05571274	     -7.44328528	     -2.13788602	    -17.56776748	      7.42487900	      0.12958859	     12.53935835	      7.44487118	     -7.05571274	     -8.43804979	      1.90026946	     -2.08112482	     13.03251842	    -44.37158729	     56.34586013	     75.76795258	     72.36097255	    -17.62268143	    -43.07463518	     37.61446956	     80.22241499	     72.90731691
      0.06666670	      3.64971893	      2.30412677	     13.51521011	     -0.12922356	      1.00238955	      0.35366285	     -3.81445332	     -2.74323849	     -5.31969142	      7.34114168	      0.12812709	     13.39718660	     -1.53333767	     -7.10198164	     -7.24300299	     -1.72021580	    -17.83946439	      7.18972825	      0.12548443	     12.35115442	      6.92887533	     -7.10198164	     -8.04456353	      1.51089057	     -1.99663457	     12.87912645	    -44.33576204	     56.50267237	     75.98298649	     71.72621346	    -17.54846635	    -43.66645433	     38.26209639	     81.19598274	     71.81567720
      0.08333330	      3.18161269	      2.26738238	     13.36102588	     -0.12815258	      1.00450561	      0.35345189	     -3.11660459	     -2.76002742	     -5.32685054	      7.49426962	      0.13079968	     13.04826605	     -2.11710129	     -7.28301304	     -6.70647378	     -1.55803041	    -18.12207820	      7.10818527	      0.12406124	     12.20104054	      6.64752799	     -7.28301304	     -7.03238231	      1.37165015	     -1.23217644	     11.76850043	    -44.44473268	     55.89487508	     75.83185799	     76.77795156	    -15.39076451	    -44.57369836	     42.21235145	     81.33304768	     68.02272161
      0.10000000	      2.73225927	      2.22344673	     13.19488565	     -0.12844824	      1.00087743	      0.35367963	     -2.58879333	     -2.74565855	     -5.56267478	      7.40674241	      0.12927204	     12.67701878	     -2.29632796	     -7.35444577	     -6.19466153	     -1.42608157	    -18.17471160	      7.03932159	      0.12285934	     12.01085720	      6.09643260	     -7.35444577	     -6.01898403	      1.22432737	     -1.00230535	     11.44449757	    -44.37599458	     56.66023584	     75.60031298	     73.91496029	    -14.85410975	    -44.98452277	     43.91774162	     81.53052703	     66.49654923
      0.11666670	      2.34590167	      2.15148813	     13.23028179	     -0.12688322	      0.99982110	      0.35310231	     -2.17221737	     -2.67340295	     -5.78022204	      7.41817328	      0.12947155	     12.35851112	     -2.57908394	     -7.40145753	     -5.75243090	     -1.41581287	    -18.20522526	      6.95891259	      0.12145594	     11.77697025	      5.56807916	     -7.40145753	     -5.31991968	      1.08873458	     -1.09860181	     11.12902624	    -44.19027906	     56.65998293	     75.33077553	     79.14346133	    -15.07076164	    -45.18181522	     43.90353058	     81.95633380	     67.75251107
      0.13333330	      2.19629381	      2.08081413	     13.24340022	     -0.12007401	      1.00005359	      0.34959474	     -2.18235641	     -2.55471125	     -6.07979052	      7.21717428	      0.12596345	     12.09857342	     -2.61220235	     -7.40205461	     -5.74566739	     -1.40941335	    -18.40494975	      6.66874074	      0.11639148	     11.70233159	      5.49578948	     -7.40205461	     -4.82159497	      1.05974221	     -1.09100484	     10.73801624	    -44.19028139	     56.88829245	     75.37026172	     79.20781576	    -15.31638957	    -45.22638351	     44.04311671	     82.17767450	     67.77761766
      0.15000000	      2.14358012	      2.05860006	     13.36183341	     -0.12814243	      1.00241152	      0.34632257	     -2.17957233	     -2.49097266	     -6.30988773	      7.23710022	      0.12631123	     11.99903973	     -2.70101671	     -7.40226126	     -5.70243593	     -1.41151209	    -18.61987444	      6.56828719	      0.11463824	     11.61999591	      5.42023925	     -7.40226126	     -4.64628085	      1.02662225	     -1.18495842	     10.57146147	    -44.06501515	     57.03517575	     75.40224939	     79.25115621	    -15.23695664	    -45.18589621	     44.06557040	     82.30924269	     67.79166714
      0.16666670	      1.98312170	      1.96049381	     13.47579037	     -0.12012679	      1.00271230	      0.34905693	     -2.20784262	     -2.34608614	     -6.61950090	      7.09022292	      0.12374773	     11.73763237	     -2.90064171	     -7.40322770	     -5.68726365	     -1.44849600	    -18.72382919	      6.27699889	      0.10955430	     11.30777956	      5.43925747	     -7.40322770	     -4.07742533	      1.00066114	     -1.25163026	     10.27315839	    -44.01852530	     57.39077243	     75.27451659	     79.48851224	    -15.35666735	    -45.28098399	     44.43359108	     82.65336075	     67.88939716
